<svg width="76" height="35" viewBox="0 0 76 35" fill="none" xmlns="http://www.w3.org/2000/svg">
<path d="M53.835 7L75.401 7L75.401 12.289L54.163 12.289C51.949 12.289 51.006 12.781 51.006 14.667L51.006 16.184C51.006 17.947 51.949 18.603 54.122 18.603L67.447 18.603C73.72 18.603 75.36 20.899 75.36 25.696L75.36 27.09C75.36 32.83 73.064 34.962 67.447 34.962L58.755 34.962L58.755 29.673L66.873 29.673C68.759 29.673 69.661 29.099 69.661 26.885L69.661 25.983C69.661 24.22 68.923 23.564 66.914 23.564L53.835 23.564C47.603 23.564 45.307 21.514 45.307 16.471L45.307 14.257C45.307 9.05 47.603 7 53.835 7ZM19.6167 0.358005L28.6777 0.358004L28.6777 5.36L20.1907 5.36C18.3867 5.36001 17.6897 5.97501 17.6897 7.73801L17.6897 9.54201L31.6297 9.542C38.4357 9.542 40.9367 11.592 40.9367 16.963L40.9367 20.366C40.9367 27.131 38.9277 29.222 31.3427 29.222L21.4207 29.222C14.0817 29.222 11.7447 26.68 11.7447 20.366L11.7447 7.41001C11.7447 2.44901 14.0817 0.358005 19.6167 0.358005ZM17.6897 14.298L17.6897 20.243C17.6897 23.195 18.6737 24.015 21.6667 24.015L31.2607 24.015C34.0897 24.015 34.9507 23.154 34.9507 20.202L34.9507 17.291C34.9507 14.913 34.0897 14.298 31.2607 14.298L17.6897 14.298ZM2.216 7.00001L4.225 7.00001C5.742 7.00001 6.316 7.53301 6.316 8.84501L6.316 12.207C6.316 13.478 5.742 14.052 4.225 14.052L2.216 14.052C0.657998 14.052 0.0839983 13.478 0.0839982 12.207L0.0839979 8.84501C0.0839978 7.53301 0.657998 7.00001 2.216 7.00001Z" fill="#D2D3D7"/>
</svg>
